<svg width="56" height="63" viewBox="0 0 56 63" fill="none" xmlns="http://www.w3.org/2000/svg">
<path d="M40.6098 25.2529H14.4555C14.4555 39.5612 10.7804 56.0827 8.94287 62.555H45.9999C42.2268 53.3428 40.8344 33.8485 40.6098 25.2529Z" fill="black"/>
<circle cx="21.2545" cy="31.0714" r="1.83754" fill="black"/>
<circle cx="33.6276" cy="31.0714" r="1.83754" fill="black"/>
<path d="M21.1934 31.7451C21.1934 31.7451 21.1321 43.2604 27.1348 43.3829C33.1374 43.5054 33.5661 31.7451 33.5661 31.7451" stroke="black" stroke-width="2.42903"/>
<path d="M30.5642 23.7214H16.3539L15.0063 10.2642L28.9104 8.16357L30.5642 23.7214Z" fill="#FE0000"/>
<circle cx="25.7868" cy="12.3283" r="0.735015" fill="white"/>
<path d="M30.687 12.8186L31.8508 23.9663L38.1597 23.7826L43.121 17.1062L33.9946 9.021L30.687 12.8186Z" fill="#FE0000"/>
<circle cx="39.1398" cy="17.5959" r="0.735015" fill="white"/>
<rect x="20.7642" y="11.1245" width="3.12403" height="3.12403" rx="1.56201" transform="rotate(-0.388483 20.7642 11.1245)" fill="white"/>
<rect x="36.6426" y="13.3081" width="3.12403" height="3.12403" rx="1.56202" transform="rotate(40.6588 36.6426 13.3081)" fill="white"/>
<path d="M9.6777 26.1709C8.50168 40.2832 2.73589 52.264 0 56.4903L7.10515 61.8192C10.3392 54.567 12.0869 34.3786 12.5565 25.1909L9.6777 26.1709Z" fill="#FE0000"/>
<path d="M44.9587 25.9872L42.2637 25.1909C42.9497 44.1543 46.1429 57.3887 47.6538 61.6354L55.0652 56.3066C49.5771 50.5734 46.0408 33.7048 44.9587 25.9872Z" fill="#FE0000"/>
<path d="M9.10178 14.7383L9.59411 16.013L10.8823 16.469L9.60756 16.9613L9.15156 18.2495L8.65922 16.9748L7.37108 16.5188L8.64578 16.0264L9.10178 14.7383Z" fill="black"/>
<path d="M22.7602 1.99162L23.3412 3.49585L24.8613 4.03396L23.357 4.61494L22.8189 6.13503L22.2379 4.63081L20.7178 4.0927L22.2221 3.51171L22.7602 1.99162Z" fill="black"/>
<path d="M41.8316 8.73614L42.2602 9.84586L43.3816 10.2428L42.2719 10.6715L41.8749 11.7929L41.4463 10.6832L40.3249 10.2862L41.4346 9.85756L41.8316 8.73614Z" fill="black"/>
<path d="M30.7877 6.95777L31.1595 7.92041L32.1323 8.26478L31.1697 8.63659L30.8253 9.60938L30.4535 8.64674L29.4807 8.30237L30.4434 7.93056L30.7877 6.95777Z" fill="#FE0000"/>
<path d="M36.7447 0.451524L36.8633 0.758576L37.1736 0.868418L36.8665 0.987013L36.7567 1.2973L36.6381 0.990251L36.3278 0.880409L36.6348 0.761814L36.7447 0.451524Z" fill="#FE0000"/>
<path d="M42.625 22.5023L42.7436 22.8094L43.0539 22.9192L42.7469 23.0378L42.637 23.3481L42.5184 23.041L42.2081 22.9312L42.5152 22.8126L42.625 22.5023Z" fill="black"/>
<path d="M13.5852 20.4936L13.9247 21.3726L14.8131 21.6871L13.934 22.0266L13.6195 22.915L13.28 22.0359L12.3917 21.7214L13.2707 21.3819L13.5852 20.4936Z" fill="#FE0000"/>
<path d="M12.2425 9.76882L12.4979 10.4302L13.1663 10.6668L12.5049 10.9223L12.2683 11.5907L12.0128 10.9293L11.3445 10.6927L12.0059 10.4372L12.2425 9.76882Z" fill="#FE0000"/>
</svg>
